{
  "accessors": [
    {
      "bufferView": 2,
      "componentType": 5126,
      "count": 7926,
      "max": [
        10.977109909057617,
        11.539392471313477,
        22.742345809936523
      ],
      "min": [
        -11.271664619445801,
        -11.053691864013672,
        0.82681101560592651
      ],
      "type": "VEC3"
    },
    {
      "bufferView": 2,
      "byteOffset": 95112,
      "componentType": 5126,
      "count": 7926,
      "max": [
        1,
        1,
        1
      ],
      "min": [
        -1,
        -1,
        -1
      ],
      "type": "VEC3"
    },
    {
      "bufferView": 3,
      "componentType": 5126,
      "count": 7926,
      "max": [
        1,
        1,
        1,
        1
      ],
      "min": [
        -1,
        -1,
        -1,
        -1
      ],
      "type": "VEC4"
    },
    {
      "bufferView": 1,
      "componentType": 5126,
      "count": 7926,
      "max": [
        0.99800801277160645,
        0.98872900009155273
      ],
      "min": [
        0.0019920000340789557,
        0.0019789999350905418
      ],
      "type": "VEC2"
    },
    {
      "bufferView": 0,
      "componentType": 5125,
      "count": 19059,
      "max": [
        7925
      ],
      "min": [
        0
      ],
      "type": "SCALAR"
    },
    {
      "bufferView": 2,
      "byteOffset": 190224,
      "componentType": 5126,
      "count": 3687,
      "max": [
        10.203246116638184,
        11.003911972045898,
        22.700468063354492
      ],
      "min": [
        -11.061588287353516,
        -10.352686882019043,
        3.6516509056091309
      ],
      "type": "VEC3"
    },
    {
      "bufferView": 2,
      "byteOffset": 234468,
      "componentType": 5126,
      "count": 3687,
      "max": [
        1,
        1,
        1
      ],
      "min": [
        -1,
        -1,
        -1
      ],
      "type": "VEC3"
    },
    {
      "bufferView": 3,
      "byteOffset": 126816,
      "componentType": 5126,
      "count": 3687,
      "max": [
        1,
        1,
        1,
        1
      ],
      "min": [
        -0.99794256687164307,
        -1,
        -1,
        -1
      ],
      "type": "VEC4"
    },
    {
      "bufferView": 1,
      "byteOffset": 63408,
      "componentType": 5126,
      "count": 3687,
      "max": [
        0.99718499183654785,
        0.98708897829055786
      ],
      "min": [
        0.0019920000340789557,
        0.59826099872589111
      ],
      "type": "VEC2"
    },
    {
      "bufferView": 0,
      "byteOffset": 76236,
      "componentType": 5125,
      "count": 10497,
      "max": [
        3686
      ],
      "min": [
        0
      ],
      "type": "SCALAR"
    },
    {
      "bufferView": 2,
      "byteOffset": 278712,
      "componentType": 5126,
      "count": 3084,
      "max": [
        11.038365364074707,
        12.136780738830566,
        23.095157623291016
      ],
      "min": [
        -12.136780738830566,
        -11.038365364074707,
        -0.079988002777099609
      ],
      "type": "VEC3"
    },
    {
      "bufferView": 2,
      "byteOffset": 315720,
      "componentType": 5126,
      "count": 3084,
      "max": [
        1,
        1,
        1
      ],
      "min": [
        -1,
        -1,
        -1
      ],
      "type": "VEC3"
    },
    {
      "bufferView": 3,
      "byteOffset": 185808,
      "componentType": 5126,
      "count": 3084,
      "max": [
        1,
        1,
        1,
        1
      ],
      "min": [
        -0.99999713897705078,
        -1,
        -1,
        -1
      ],
      "type": "VEC4"
    },
    {
      "bufferView": 1,
      "byteOffset": 92904,
      "componentType": 5126,
      "count": 3084,
      "max": [
        0.99800801277160645,
        0.97245800495147705
      ],
      "min": [
        0.0019920000340789557,
        0.0019409999949857593
      ],
      "type": "VEC2"
    },
    {
      "bufferView": 0,
      "byteOffset": 118224,
      "componentType": 5125,
      "count": 8196,
      "max": [
        3083
      ],
      "min": [
        0
      ],
      "type": "SCALAR"
    }
  ],
  "asset": {
    "extras": {
      "author": "Abhijeet (https://sketchfab.com/Abhijeet.in)",
      "license": "CC-BY-4.0 (http://creativecommons.org/licenses/by/4.0/)",
      "source": "https://sketchfab.com/3d-models/low-poly-isometric-baby-girl-room-512f5bf4baa04c919b4c68544e7af0d3",
      "title": "Low Poly Isometric Baby Girl Room"
    },
    "generator": "Sketchfab-9.42.0",
    "version": "2.0"
  },
  "bufferViews": [
    {
      "buffer": 0,
      "byteLength": 151008,
      "byteOffset": 0,
      "name": "floatBufferViews",
      "target": 34963
    },
    {
      "buffer": 0,
      "byteLength": 117576,
      "byteOffset": 151008,
      "byteStride": 8,
      "name": "floatBufferViews",
      "target": 34962
    },
    {
      "buffer": 0,
      "byteLength": 352728,
      "byteOffset": 268584,
      "byteStride": 12,
      "name": "floatBufferViews",
      "target": 34962
    },
    {
      "buffer": 0,
      "byteLength": 235152,
      "byteOffset": 621312,
      "byteStride": 16,
      "name": "floatBufferViews",
      "target": 34962
    }
  ],
  "buffers": [
    {
      "byteLength": 856464,
      "uri": "scene.bin"
    }
  ],
  "images": [
    {
      "uri": "textures/lambert5SG_baseColor.png"
    },
    {
      "uri": "textures/lambert5SG_metallicRoughness.png"
    },
    {
      "uri": "textures/lambert5SG_emissive.png"
    },
    {
      "uri": "textures/lambert5SG_normal.png"
    },
    {
      "uri": "textures/lambert6SG_baseColor.png"
    },
    {
      "uri": "textures/lambert6SG_metallicRoughness.png"
    },
    {
      "uri": "textures/lambert6SG_emissive.png"
    },
    {
      "uri": "textures/lambert6SG_normal.png"
    }
  ],
  "materials": [
    {
      "doubleSided": true,
      "emissiveFactor": [
        1,
        1,
        1
      ],
      "emissiveTexture": {
        "index": 2,
        "texCoord": 0
      },
      "name": "lambert5SG",
      "normalTexture": {
        "index": 3,
        "scale": 1,
        "texCoord": 0
      },
      "occlusionTexture": {
        "index": 1,
        "strength": 1,
        "texCoord": 0
      },
      "pbrMetallicRoughness": {
        "baseColorFactor": [
          1,
          1,
          1,
          1
        ],
        "baseColorTexture": {
          "index": 0,
          "texCoord": 0
        },
        "metallicFactor": 1,
        "metallicRoughnessTexture": {
          "index": 1,
          "texCoord": 0
        },
        "roughnessFactor": 1
      }
    },
    {
      "doubleSided": true,
      "emissiveFactor": [
        1,
        1,
        1
      ],
      "emissiveTexture": {
        "index": 6,
        "texCoord": 0
      },
      "name": "lambert6SG",
      "normalTexture": {
        "index": 7,
        "scale": 0.35369200134666312,
        "texCoord": 0
      },
      "occlusionTexture": {
        "index": 5,
        "strength": 1,
        "texCoord": 0
      },
      "pbrMetallicRoughness": {
        "baseColorFactor": [
          1,
          1,
          1,
          1
        ],
        "baseColorTexture": {
          "index": 4,
          "texCoord": 0
        },
        "metallicFactor": 1,
        "metallicRoughnessTexture": {
          "index": 5,
          "texCoord": 0
        },
        "roughnessFactor": 1
      }
    }
  ],
  "meshes": [
    {
      "primitives": [
        {
          "attributes": {
            "NORMAL": 1,
            "POSITION": 0,
            "TANGENT": 2,
            "TEXCOORD_0": 3
          },
          "indices": 4,
          "material": 0,
          "mode": 4
        }
      ]
    },
    {
      "primitives": [
        {
          "attributes": {
            "NORMAL": 6,
            "POSITION": 5,
            "TANGENT": 7,
            "TEXCOORD_0": 8
          },
          "indices": 9,
          "material": 0,
          "mode": 4
        }
      ]
    },
    {
      "primitives": [
        {
          "attributes": {
            "NORMAL": 11,
            "POSITION": 10,
            "TANGENT": 12,
            "TEXCOORD_0": 13
          },
          "indices": 14,
          "material": 1,
          "mode": 4
        }
      ]
    }
  ],
  "nodes": [
    {
      "children": [
        1
      ],
      "name": "RootNode (gltf orientation matrix)",
      "rotation": [
        -0.70710678118654746,
        -0,
        -0,
        0.70710678118654757
      ]
    },
    {
      "children": [
        2
      ],
      "name": "RootNode (model correction matrix)"
    },
    {
      "children": [
        3,
        4,
        5
      ],
      "name": "isometric_final2.obj.cleaner.materialmerger.gles"
    },
    {
      "mesh": 0,
      "name": ""
    },
    {
      "mesh": 1,
      "name": ""
    },
    {
      "mesh": 2,
      "name": ""
    }
  ],
  "samplers": [
    {
      "magFilter": 9729,
      "minFilter": 9987,
      "wrapS": 10497,
      "wrapT": 10497
    }
  ],
  "scene": 0,
  "scenes": [
    {
      "name": "OSG_Scene",
      "nodes": [
        0
      ]
    }
  ],
  "textures": [
    {
      "sampler": 0,
      "source": 0
    },
    {
      "sampler": 0,
      "source": 1
    },
    {
      "sampler": 0,
      "source": 2
    },
    {
      "sampler": 0,
      "source": 3
    },
    {
      "sampler": 0,
      "source": 4
    },
    {
      "sampler": 0,
      "source": 5
    },
    {
      "sampler": 0,
      "source": 6
    },
    {
      "sampler": 0,
      "source": 7
    }
  ]
}

